PathFileType	4	(X/Y/Z)	C:\Users\86182\Documents\cortex\Trimmed_M1_H5.trc
DataRate	CameraRate	NumFrames	NumMarkers	Units	OrigDataRate	OrigDataStartFrame	OrigNumFrames
100.00	100.00	       72	2	mm	100.00	1	       901
Frame#	Time	gripper			box			
		X1	Y1	Z1	X2	Y2	Z2	

1	0.000	221.78366	202.81430	185.14063	227.25473	202.27806	45.69913	
2	0.010	221.78705	202.81271	185.13821	227.25539	202.27838	45.69872	
3	0.020	221.79097	202.81006	185.13490	227.25591	202.27864	45.69839	
4	0.030	221.79440	202.80652	185.13132	227.25613	202.27875	45.69824	
5	0.040	221.79649	202.80255	185.12813	227.25584	202.27861	45.69843	
6	0.050	221.79732	202.79869	185.12555	227.25479	202.27809	45.69909	
7	0.060	221.79782	202.79543	185.12335	227.25279	202.27710	45.70036	
8	0.070	221.79900	202.79311	185.12129	227.24976	202.27560	45.70227	
9	0.080	221.80130	202.79207	185.11938	227.24583	202.27367	45.70476	
10	0.090	221.80396	202.79243	185.11821	227.24150	202.27153	45.70750	
11	0.100	221.80504	202.79401	185.11873	227.23766	202.26962	45.70993	
12	0.110	221.80281	202.79645	185.12169	227.23509	202.26836	45.71155	
13	0.120	221.79736	202.79939	185.12685	227.23386	202.26775	45.71233	
14	0.130	221.79063	202.80243	185.13283	227.23338	202.26752	45.71263	
15	0.140	221.78502	202.80516	185.13794	227.23340	202.26752	45.71262	
16	0.150	221.78224	202.80734	185.14096	227.23441	202.26801	45.71198	
17	0.160	221.78314	202.80884	185.14122	227.23700	202.26929	45.71034	
18	0.170	221.78770	202.80954	185.13873	227.24092	202.27122	45.70786	
19	0.180	221.79474	202.80946	185.13428	227.24522	202.27335	45.70514	
20	0.190	221.80278	202.80873	185.12897	227.24896	202.27521	45.70277	
21	0.200	221.81093	202.80743	185.12349	227.25172	202.27657	45.70103	
22	0.210	221.81836	202.80573	185.11850	227.25336	202.27737	45.70000	
23	0.220	221.82350	202.80391	185.11504	227.25383	202.27760	45.69970	
24	0.230	221.82458	202.80238	185.11418	227.25323	202.27731	45.70007	
25	0.240	221.82062	202.80150	185.11647	227.25179	202.27660	45.70100	
26	0.250	221.81219	202.80150	185.12149	227.24985	202.27563	45.70222	
27	0.260	221.80103	202.80241	185.12816	227.24806	202.27477	45.70335	
28	0.270	221.78903	202.80411	185.13535	227.24724	202.27435	45.70387	
29	0.280	221.77789	202.80632	185.14207	227.24777	202.27461	45.70353	
30	0.290	221.76886	202.80872	185.14767	227.24934	202.27539	45.70254	
31	0.300	221.76237	202.81073	185.15187	227.25130	202.27635	45.70130	
32	0.310	221.75844	202.81178	185.15446	227.25313	202.27727	45.70014	
33	0.320	221.75699	202.81146	185.15535	227.25459	202.27798	45.69921	
34	0.330	221.75789	202.80983	185.15454	227.25563	202.27850	45.69855	
35	0.340	221.76106	202.80742	185.15227	227.25629	202.27882	45.69815	
36	0.350	221.76662	202.80504	185.14859	227.25662	202.27899	45.69793	
37	0.360	221.77437	202.80322	185.14371	227.25674	202.27905	45.69786	
38	0.370	221.78337	202.80211	185.13814	227.25674	202.27905	45.69786	
39	0.380	221.79213	202.80164	185.13277	227.25667	202.27901	45.69791	
40	0.390	221.79901	202.80188	185.12863	227.25658	202.27896	45.69797	
41	0.400	221.80283	202.80295	185.12657	227.25648	202.27892	45.69802	
42	0.410	221.80328	202.80475	185.12677	227.25641	202.27888	45.69807	
43	0.420	221.80103	202.80692	185.12877	227.25636	202.27885	45.69810	
44	0.430	221.79762	202.80896	185.13148	227.25632	202.27884	45.69812	
45	0.440	221.79501	202.81052	185.13361	227.25630	202.27884	45.69814	
46	0.450	221.79433	202.81139	185.13437	227.25630	202.27882	45.69814	
47	0.460	221.79523	202.81165	185.13402	227.25630	202.27882	45.69814	
48	0.470	221.79634	202.81163	185.13345	227.25630	202.27882	45.69814	
49	0.480	221.79587	202.81178	185.13382	227.25630	202.27884	45.69814	
50	0.490	221.79268	202.81242	185.13589	227.25630	202.27884	45.69813	
51	0.500	221.78694	202.81346	185.13956	227.25632	202.27884	45.69813	
52	0.510	221.77988	202.81458	185.14401	227.25632	202.27884	45.69812	
53	0.520	221.77332	202.81538	185.14807	227.25632	202.27884	45.69812	
54	0.530	221.76910	202.81567	185.15060	227.25633	202.27884	45.69812	
55	0.540	221.76834	202.81540	185.15086	227.25633	202.27884	45.69812	
56	0.550	221.77074	202.81482	185.14912	227.25633	202.27885	45.69812	
57	0.560	221.77473	202.81425	185.14641	227.25633	202.27884	45.69812	
58	0.570	221.77870	202.81396	185.14384	227.25632	202.27884	45.69812	
59	0.580	221.78163	202.81395	185.14201	227.25630	202.27884	45.69813	
60	0.590	221.78328	202.81404	185.14098	227.25629	202.27882	45.69815	
61	0.600	221.78407	202.81407	185.14038	227.25626	202.27881	45.69817	
62	0.610	221.78516	202.81383	185.13948	227.25621	202.27878	45.69821	
63	0.620	221.78804	202.81310	185.13736	227.25616	202.27876	45.69825	
64	0.630	221.79385	202.81180	185.13342	227.25612	202.27873	45.69828	
65	0.640	221.80278	202.80989	185.12758	227.25610	202.27873	45.69830	
66	0.650	221.81403	202.80754	185.12036	227.25615	202.27875	45.69829	
67	0.660	221.82568	202.80516	185.11304	227.25629	202.27881	45.69820	
68	0.670	221.83542	202.80318	185.10713	227.25656	202.27895	45.69801	
69	0.680	221.84145	202.80193	185.10378	227.25702	202.27919	45.69768	
70	0.690	221.84335	202.80144	185.10318	227.25768	202.27953	45.69718	
71	0.700	221.84253	202.80148	185.10446	227.25853	202.27997	45.69651	
72	0.710	221.84094	202.80179	185.10635	227.25948	202.28049	45.69572	
